<svg width="341" height="73" viewBox="0 0 341 73" fill="none" xmlns="http://www.w3.org/2000/svg">
<g clip-path="url(#clip0)">
<path d="M36.1612 20.0044C39.4581 20.0044 39.99 18.538 39.99 16.5481C39.99 8.48354 34.034 1.46631 22.973 1.46631C9.67843 1.46631 0 11.7303 0 24.9268C0 36.3429 7.76401 46.2928 22.1222 46.2928C28.5035 46.2928 36.374 43.2555 40.7345 34.3529C40.7345 32.5724 39.1392 31.7346 37.9692 31.9441C35.0976 36.7619 31.056 37.3903 28.078 37.3903C18.187 37.3903 13.0818 29.7446 13.0818 21.8896C13.0818 20.2137 13.2946 20.0044 15.7407 20.0044H36.1612ZM18.8251 15.396C15.4217 15.396 13.9327 15.2913 13.9327 13.825C13.9327 10.4735 17.7615 6.2841 22.2286 6.2841C25.8446 6.2841 27.8654 8.58826 27.8654 12.0445C27.8654 13.0918 27.6527 14.1392 27.1208 14.4534C25.951 15.1865 24.2492 15.396 22.7603 15.396H18.8251Z" fill="#17D764"/>
<path d="M82.6694 16.6528C83.2011 5.86516 77.9897 1.46631 69.0557 1.46631C61.5044 1.46631 54.8039 5.02728 51.1879 7.85512C48.6354 9.84508 46.0827 13.1966 46.0827 15.9197C46.0827 17.386 46.7209 18.538 48.529 18.538C50.4434 18.538 54.5912 17.2812 56.1867 16.1292C57.1439 15.396 57.782 14.4534 57.9947 12.7776C58.7392 8.27407 60.9727 6.80777 63.5252 6.80777C68.0985 6.80777 69.694 11.835 69.694 15.8149C69.694 17.0718 69.5876 18.2238 69.4812 19.3759C69.3748 20.2137 68.843 20.947 66.9285 21.4706C63.9507 22.3085 60.9727 23.1463 56.9311 24.4032C49.1671 26.7073 45.8701 29.9541 45.8701 35.2955C45.8701 42.6269 51.6134 46.2928 57.782 46.2928C61.7172 46.2928 64.9079 44.3028 66.8223 42.9412C67.8857 42.2081 68.524 41.7891 69.0557 41.7891C69.5876 41.7891 70.0129 41.9986 70.7574 42.6269C73.629 45.0359 75.9689 46.2928 79.6914 46.2928C85.7538 46.2928 90.7524 42.3128 92.0287 40.6371C92.3479 39.6945 91.7096 38.4376 90.7524 38.2281C89.0507 39.1707 87.9871 39.485 86.711 39.485C84.5838 39.485 81.4994 37.5998 81.9249 30.4777L82.6694 16.6528ZM68.9493 34.3529C68.843 37.5998 68.2049 39.485 64.9079 39.485C61.9299 39.485 59.4836 36.5524 59.4836 33.201C59.4836 28.2784 63.6316 26.4979 68.4176 25.8694C69.1621 25.7647 69.2685 26.0789 69.1621 27.7546L68.9493 34.3529Z" fill="#17D764"/>
<path d="M108.272 46.2928C118.269 46.2928 126.352 41.5797 126.459 32.2584C126.459 25.4506 121.992 21.0518 114.759 17.5954C109.973 15.2913 107.953 13.3013 107.953 10.8924C107.953 8.06459 110.186 6.2841 113.271 6.2841C116.78 6.2841 119.439 8.48352 121.566 14.5581C122.204 15.2913 124.863 15.2913 125.289 14.1392C125.289 10.1593 124.757 5.96989 123.693 3.66574C122.524 2.82786 117.737 1.46631 112.313 1.46631C103.167 1.46631 95.4025 5.86516 95.4025 14.9771C95.4025 21.2611 99.976 25.0315 106.357 28.1737C109.973 29.9541 113.377 32.1536 113.377 36.0288C113.377 39.5898 111.037 41.475 107.846 41.475C102.422 41.475 98.3805 35.2955 96.998 31.0015C96.3598 30.0589 94.02 30.1636 93.3819 31.211C93.1692 35.9241 93.9136 40.9512 95.0836 43.0459C97.9552 45.2454 102.209 46.2928 108.272 46.2928Z" fill="#17D764"/>
<path d="M131.432 6.59833C134.835 7.122 135.793 9.00722 137.813 14.0345L148.024 39.3803C149.725 43.6743 150.044 45.6643 150.044 47.0259C150.044 48.2826 149.194 50.1678 148.555 51.4247C147.492 53.6242 146.641 55.6142 145.471 57.1851C144.407 58.5466 142.812 59.3846 140.26 59.3846H137.707C133.985 59.3846 131.645 61.6887 131.645 64.8308C131.645 67.6586 132.708 71.2196 138.452 71.1148C142.387 71.0101 145.365 68.9153 147.598 64.2023L163.764 31.211L169.401 19.7949C171.741 14.9771 174.4 10.4735 175.676 8.79775C176.633 7.54094 178.441 6.70305 180.569 6.49359H183.353C184.311 5.86517 183.61 3.88649 182.546 3.46754C179.766 3.39454 176.986 3.41847 174.081 3.28504C169.295 3.28504 166.104 2.82788 163.764 2.61841C162.594 2.93262 162.488 5.55098 163.445 6.28412L165.572 6.70305C166.849 6.91252 167.912 7.43621 167.912 8.16935C167.912 9.32141 166.211 13.7203 163.977 18.7475L162.063 23.0416C160.999 25.3458 159.936 27.7546 158.766 29.9541C157.489 27.3358 155.15 20.947 153.98 18.0144C151.959 12.6729 150.789 9.94983 150.789 8.69301C150.789 7.7504 151.002 7.33147 153.98 6.70305L156.107 6.28412C156.958 5.55098 156.851 3.03736 155.788 2.61841C151.852 2.82788 147.811 2.93262 143.876 2.93262C138.239 2.93262 133.666 2.82788 129.837 2.61841C128.773 3.03736 128.773 5.55098 129.518 6.28412L131.432 6.59833Z" fill="#17D764"/>
<path d="M182.546 6.57005C185.205 7.19845 186.223 8.39322 188.777 13.5252C195.476 27.455 197.71 32.4821 203.24 45.6787C203.879 46.0977 204.835 46.4118 205.793 46.4118C206.857 46.4118 207.708 46.0977 208.24 45.6787C213.132 34.4721 217.918 23.2655 223.448 12.4779C225.575 8.49794 226.426 7.24114 229.617 6.71747L231.424 6.40326C232.169 5.77486 232.382 3.26121 231.213 2.73755C228.872 2.84229 226.426 3.05176 223.023 3.05176C219.938 3.05176 217.704 2.94702 214.302 2.73755C213.238 3.26121 213.238 5.77486 214.194 6.40326L215.684 6.71747C217.493 7.1364 218.236 7.45061 218.236 7.97428C218.236 8.60268 218.023 9.54529 217.599 10.5926C215.366 16.9815 212.706 22.5324 210.365 27.7691C208.132 22.7419 205.793 17.2957 203.666 11.5353C203.134 9.96424 202.708 8.49794 202.708 7.86954C202.708 7.24114 203.24 7.1364 204.517 6.82219L206.218 6.40326C206.857 5.87958 206.963 3.26121 206.007 2.73755C202.07 2.84229 198.136 3.13905 194.2 3.13905C188.638 3.37234 186.316 3.39455 182.546 3.46755C181.163 3.8865 179.736 5.67012 180.693 6.40326L182.546 6.57005Z" fill="#17D764"/>
<path d="M271.132 5.34149C267.197 3.24679 261.56 1.46631 255.285 1.46631C241.459 1.46631 234.545 9.63561 234.545 18.3285C234.545 24.7175 238.268 29.7446 243.585 31.8393C244.117 32.782 243.693 33.4103 242.734 34.1436C242.097 34.7719 238.906 37.1808 235.927 39.066C235.395 39.5898 235.184 40.4276 235.184 41.2655C235.184 44.9312 237.842 48.3873 241.778 49.6442C242.629 49.8537 242.948 50.3773 241.671 51.1104C240.501 51.739 238.587 53.1004 236.459 54.3573C234.652 55.4047 233.057 57.0804 233.057 59.5939C233.057 66.0875 238.587 73 253.902 73C260.072 73 266.984 71.6384 272.514 68.3917C278.045 65.0401 282.087 59.1751 282.087 52.5768C282.087 41.9986 273.578 39.9038 265.602 39.9038C260.604 39.9038 256.243 40.1133 252.625 40.1133C249.436 40.1133 247.203 38.6471 247.203 36.3429C247.203 35.0862 247.946 34.2482 249.01 33.8293C250.179 33.9341 251.669 34.1436 253.37 34.1436C270.176 34.1436 275.174 24.0889 275.174 15.8149C275.174 14.0345 275.066 13.0918 274.855 12.1492H282.724C283.788 11.5208 284.32 9.63561 284.32 7.95985C284.32 6.80777 284.108 5.96989 283.363 5.34149H271.132ZM248.372 16.5481C248.372 9.42613 251.563 6.2841 254.86 6.2841C258.689 6.2841 261.773 10.264 261.773 18.7475C261.773 26.3932 259.008 29.4305 255.711 29.4305C251.456 29.4305 248.372 24.508 248.372 16.5481ZM260.496 50.6916C266.347 50.6916 270.919 53.1004 270.919 59.1751C270.919 64.2023 266.452 67.4491 259.751 67.4491C251.35 67.4491 245.926 62.8408 245.926 55.7187C245.926 54.3573 246.35 52.9957 247.414 52.053C248.372 51.3199 250.5 50.6916 253.37 50.6916H260.496Z" fill="#17D764"/>
<path d="M292.072 32.6772C292.072 40.0086 291.646 40.8464 287.817 41.2654L286.116 41.4749C285.265 42.1033 285.265 44.5121 286.221 45.1406C289.944 44.9311 294.305 44.8264 298.772 44.8264C303.877 44.8264 307.28 44.9311 310.577 45.1406C311.535 44.5121 311.535 42.1033 310.684 41.4749L308.983 41.2654C306.324 40.9512 305.897 40.0086 305.897 34.2481V15.5007C305.897 13.6155 306.11 12.3587 306.748 11.6255C307.6 10.4735 309.726 9.11191 312.704 9.11191C318.023 9.11191 320.149 12.4634 320.149 16.5481V34.2481C320.149 40.0086 319.724 40.7417 317.278 41.1607L315.364 41.4749C314.513 42.1033 314.513 44.5121 315.469 45.1406C318.555 44.9311 322.703 44.8264 326.956 44.8264C332.062 44.8264 336.528 44.9311 339.825 45.1406C340.783 44.5121 340.783 42.1033 339.932 41.4749L338.229 41.2654C334.4 40.8464 333.976 40.0086 333.976 32.6772V14.6628C333.976 7.43616 329.51 1.46628 320.681 1.46628C315.788 1.46628 310.79 4.29412 308.451 5.65567C307.812 5.96987 306.748 6.49355 306.429 6.49355C306.11 6.49355 305.897 6.28408 305.897 5.65567C305.897 4.92254 306.216 2.40889 306.216 0.942611C305.792 0.314207 305.154 0 304.302 0C301.218 1.88522 293.56 4.71306 288.562 6.0746C287.817 6.70301 287.817 8.58823 288.562 9.21665L290.05 10.1592C292.072 11.4161 292.072 12.6729 292.072 16.8623V32.6772Z" fill="#17D764"/>
</g>
<defs>
<clipPath id="clip0">
<rect width="341" height="73" fill="white"/>
</clipPath>
</defs>
</svg>
