<svg width="123" height="40" viewBox="0 0 123 40" fill="none" xmlns="http://www.w3.org/2000/svg">
<path d="M1.57374 27.9859H5.65116V8.76325H1.57374V27.9859ZM3.61245 0.989401C2.18177 0.989401 1.073 2.04947 1.073 3.4629C1.073 4.87633 2.11024 5.97173 3.54091 5.97173H3.57668C5.04312 5.97173 6.11613 4.91166 6.11613 3.4629C6.08036 2.04947 5.04312 0.989401 3.61245 0.989401ZM18.4199 8.33922C15.487 8.33922 13.4483 9.82332 12.3753 11.3074C12.3038 10.4594 12.1965 8.76325 12.1965 8.76325H8.54827L8.7271 14.0989V27.9859H12.7688V16.4664L12.9834 14.9823C13.5199 13.3569 15.0578 11.7315 17.2754 11.7315C20.6017 11.7315 21.317 14.5583 21.317 16.9611V27.9859H25.3944V16.5724C25.3944 8.72792 19.5645 8.33922 18.4199 8.33922ZM37.0544 11.9788V8.76325H32.1544V4.20495L31.7609 4.34629L28.1843 5.4417V8.76325H25.2514V11.9788H28.1843V21.8021C28.1843 24.1696 28.6492 25.8304 29.5792 26.8905C30.4733 27.8799 31.8682 28.4099 33.5135 28.4099C35.0515 28.4099 36.1245 28.0919 36.661 27.9152L36.8756 27.8445L36.6968 24.629L36.3033 24.735C35.8026 24.8763 35.2661 24.947 34.4077 24.947C32.8339 24.947 32.1544 23.9576 32.1544 21.6608V11.9788H37.0544Z" fill="#1A222B"/>
<path d="M45.8888 8.30389C40.4881 8.30389 36.6968 12.5795 36.6968 18.6926C36.6968 24.5936 40.4523 28.3746 46.2823 28.3746C49.3225 28.3746 51.4685 27.7032 52.7203 27.1731L52.9707 27.0671L52.1838 24.0989L51.8619 24.2403C50.7531 24.6996 49.2867 25.159 46.783 25.159C45.0304 25.159 40.9888 24.5583 40.7384 19.3286C41.418 19.3286 53.8648 19.364 53.8648 19.364V19.1166L53.9721 17.4558C53.9364 13.1802 51.8619 8.30389 45.8888 8.30389ZM40.7742 16.2191C41.1319 13.8869 42.5625 11.3428 45.6385 11.3428C46.8903 11.3428 47.8918 11.7315 48.6071 12.4735C49.7874 13.6749 49.9663 15.4064 50.002 16.2191H40.7742Z" fill="#1A222B"/>
<path d="M83.2294 8.33922C81.0834 8.33922 79.1878 9.64664 78.1505 11.7314C78.1148 10.6714 78.0432 8.76325 78.0432 8.76325H74.395L74.5738 14.8763L74.5381 27.9859H78.5797V17.7739L78.687 16.2191C79.152 13.7809 80.833 12.1908 82.9433 12.1908L84.374 12.2968L84.4813 11.9788V8.48056L83.2294 8.33922Z" fill="#1A222B"/>
<path d="M87.3784 5.97173H87.4141C88.8806 5.97173 89.9536 4.91166 89.9536 3.4629C89.9536 2.04947 88.9163 0.989401 87.4499 0.989401C86.0192 0.989401 84.9104 2.04947 84.9104 3.4629C84.9104 4.91166 85.9835 5.97173 87.3784 5.97173ZM85.4469 27.9859H89.4886V8.76325H85.4469V27.9859Z" fill="#1A222B"/>
<path d="M102.222 11.9788V8.76325H97.3215V4.20495L96.9281 4.34629L93.3514 5.4417V8.76325H90.4543V11.9788H93.3514V21.8021C93.3514 24.1696 93.8164 25.8304 94.7463 26.8905C95.6405 27.8799 97.0354 28.4099 98.6807 28.4099C100.219 28.4099 101.327 28.0919 101.828 27.9152L102.043 27.8445L101.828 24.629L101.435 24.735C100.934 24.8763 100.397 24.947 99.5391 24.947C97.9653 24.947 97.2858 23.9576 97.2858 21.6608V11.9788H102.222Z" fill="#1A222B"/>
<path d="M116.922 8.76325L113.13 19.894L112.308 22.5442C112.308 22.5442 112.236 22.7562 112.201 22.9329C111.843 21.9081 111.235 19.9647 111.235 19.9647L107.086 8.76325H102.651L109.733 26.3604C109.733 26.3958 109.983 27.1025 109.983 27.1025L109.768 27.6678C109.053 29.2226 107.98 30.6007 106.943 31.4134C105.727 32.4735 104.511 32.8975 104.046 33.0035L103.724 33.0742L104.761 36.5018L105.047 36.4664C105.548 36.3604 107.336 35.9364 109.411 34.2403C111.664 32.2615 113.309 29.2933 115.956 22.4382L121.25 8.76325H116.922Z" fill="#1A222B"/>
<path d="M67.3132 22.6855C71.2118 24.5936 73.1432 27.1731 73.1432 30.424C73.1432 32.9329 72.2848 34.947 70.568 36.5018C68.8512 38.0565 66.5978 38.8339 63.8438 38.8339C61.054 38.8339 58.8364 38.0565 57.1196 36.5018C55.4028 34.947 54.5444 32.9329 54.5444 30.424C54.5444 27.1731 56.5116 24.5936 60.4102 22.6855C57.2269 20.742 55.6532 18.3392 55.6532 15.4064C55.6532 13.2509 56.4043 11.4841 57.9065 10.106C59.4087 8.72791 61.3759 8.0212 63.8438 8.0212C66.3117 8.0212 68.2789 8.72791 69.7811 10.106C71.2833 11.4841 72.0344 13.2509 72.0344 15.4064C72.0344 18.3039 70.4607 20.742 67.3132 22.6855ZM69.3877 30.424C69.3877 29.1166 68.9585 28.0212 68.0643 27.1025C67.1701 26.1837 65.7752 25.265 63.8438 24.3463C61.9124 25.265 60.5175 26.1837 59.6233 27.1025C58.7649 28.0212 58.2999 29.1519 58.2999 30.424C58.2999 32.0848 58.8007 33.4276 59.8021 34.3816C60.8036 35.3357 62.1628 35.8304 63.8438 35.8304C65.5248 35.8304 66.8482 35.3357 67.8854 34.3816C68.8869 33.4276 69.3877 32.0848 69.3877 30.424ZM63.8438 21.0954C66.8124 19.682 68.2789 17.7738 68.2789 15.4064C68.2789 14.0283 67.8855 12.9682 67.0986 12.1908C66.3117 11.4134 65.2387 11.0247 63.8438 11.0247C62.4489 11.0247 61.3759 11.4134 60.589 12.1908C59.8021 12.9682 59.4087 14.0283 59.4087 15.4064C59.4087 17.8092 60.8751 19.682 63.8438 21.0954Z" fill="#1A222B"/>
<path d="M67.3132 22.6855C71.2118 24.5936 73.1432 27.1731 73.1432 30.424C73.1432 32.9329 72.2848 34.947 70.568 36.5018C68.8512 38.0565 66.5978 38.8339 63.8438 38.8339C61.054 38.8339 58.8364 38.0565 57.1196 36.5018C55.4028 34.947 54.5444 32.9329 54.5444 30.424C54.5444 27.1731 56.5116 24.5936 60.4102 22.6855C57.2269 20.742 55.6532 18.3392 55.6532 15.4064C55.6532 13.2509 56.4043 11.4841 57.9065 10.106C59.4087 8.72791 61.3759 8.0212 63.8438 8.0212C66.3117 8.0212 68.2789 8.72791 69.7811 10.106C71.2833 11.4841 72.0344 13.2509 72.0344 15.4064C72.0344 18.3039 70.4607 20.742 67.3132 22.6855ZM69.3877 30.424C69.3877 29.1166 68.9585 28.0212 68.0643 27.1025C67.1701 26.1837 65.7752 25.265 63.8438 24.3463C61.9124 25.265 60.5175 26.1837 59.6233 27.1025C58.7649 28.0212 58.2999 29.1519 58.2999 30.424C58.2999 32.0848 58.8007 33.4276 59.8021 34.3816C60.8036 35.3357 62.1628 35.8304 63.8438 35.8304C65.5248 35.8304 66.8482 35.3357 67.8854 34.3816C68.8869 33.4276 69.3877 32.0848 69.3877 30.424ZM63.8438 21.0954C66.8124 19.682 68.2789 17.7738 68.2789 15.4064C68.2789 14.0283 67.8855 12.9682 67.0986 12.1908C66.3117 11.4134 65.2387 11.0247 63.8438 11.0247C62.4489 11.0247 61.3759 11.4134 60.589 12.1908C59.8021 12.9682 59.4087 14.0283 59.4087 15.4064C59.4087 17.8092 60.8751 19.682 63.8438 21.0954Z" fill="#1A222B"/>
</svg>
