<svg width="99" height="17" viewBox="0 0 99 17" fill="none" xmlns="http://www.w3.org/2000/svg">
<path d="M7.64612 4.65852C8.34282 4.65852 8.45519 4.31706 8.45519 3.85365C8.45519 1.9756 7.19663 0.341462 4.85932 0.341462C2.05004 0.341462 0.00488281 2.7317 0.00488281 5.80486C0.00488281 8.46338 1.6455 10.7804 4.67952 10.7804C6.02797 10.7804 7.69107 10.0731 8.61251 7.99997C8.61251 7.58534 8.2754 7.39022 8.02818 7.439C7.42138 8.56094 6.56736 8.70729 5.93808 8.70729C3.84797 8.70729 2.76921 6.9268 2.76921 5.09754C2.76921 4.7073 2.81416 4.65852 3.33107 4.65852H7.64612ZM3.98282 3.58535C3.26364 3.58535 2.94901 3.56096 2.94901 3.2195C2.94901 2.43902 3.75808 1.46341 4.702 1.46341C5.46612 1.46341 5.89313 1.99999 5.89313 2.80487C5.89313 3.04877 5.84818 3.29267 5.73581 3.36584C5.48859 3.53657 5.12901 3.58535 4.81437 3.58535H3.98282Z" fill="white"/>
<path d="M17.4738 3.87803C17.5861 1.36585 16.4849 0.341462 14.5971 0.341462C13.0014 0.341462 11.5855 1.17073 10.8214 1.82926C10.282 2.29267 9.74264 3.07316 9.74264 3.7073C9.74264 4.04877 9.87748 4.31706 10.2595 4.31706C10.6641 4.31706 11.5406 4.02438 11.8777 3.75608C12.08 3.58535 12.2148 3.36584 12.2598 2.9756C12.4171 1.92682 12.889 1.58536 13.4284 1.58536C14.3948 1.58536 14.7319 2.75609 14.7319 3.68291C14.7319 3.9756 14.7094 4.24389 14.687 4.51218C14.6645 4.7073 14.5521 4.87803 14.1476 4.99998C13.5183 5.1951 12.889 5.39022 12.035 5.68291C10.3944 6.21949 9.69769 6.97558 9.69769 8.21948C9.69769 9.92679 10.9113 10.7804 12.2148 10.7804C13.0463 10.7804 13.7206 10.317 14.1251 9.99996C14.3499 9.82923 14.4847 9.73167 14.5971 9.73167C14.7094 9.73167 14.7993 9.78045 14.9567 9.92679C15.5635 10.4878 16.0579 10.7804 16.8445 10.7804C18.1255 10.7804 19.1818 9.85362 19.4515 9.46338C19.5189 9.24387 19.3841 8.95119 19.1818 8.90241C18.8222 9.12192 18.5975 9.19509 18.3278 9.19509C17.8783 9.19509 17.2266 8.75607 17.3165 7.09754L17.4738 3.87803ZM14.5746 7.99997C14.5521 8.75607 14.4173 9.19509 13.7206 9.19509C13.0913 9.19509 12.5744 8.51216 12.5744 7.73168C12.5744 6.58534 13.4509 6.17071 14.4622 6.02437C14.6195 5.99998 14.642 6.07315 14.6195 6.46339L14.5746 7.99997Z" fill="white"/>
<path d="M22.8838 10.7804C24.9964 10.7804 26.7045 9.68289 26.7269 7.51217C26.7269 5.92681 25.783 4.90242 24.2548 4.09755C23.2434 3.56096 22.8164 3.09755 22.8164 2.53658C22.8164 1.87804 23.2884 1.46341 23.9401 1.46341C24.6818 1.46341 25.2436 1.9756 25.6931 3.39023C25.828 3.56096 26.3898 3.56096 26.4797 3.29267C26.4797 2.36585 26.3673 1.39024 26.1426 0.853656C25.8954 0.658534 24.884 0.341462 23.7379 0.341462C21.8051 0.341462 20.1645 1.36585 20.1645 3.48779C20.1645 4.9512 21.1308 5.82925 22.4793 6.56095C23.2434 6.97559 23.9626 7.48778 23.9626 8.39021C23.9626 9.21948 23.4682 9.6585 22.7939 9.6585C21.6477 9.6585 20.7937 8.21948 20.5016 7.21949C20.3667 6.99998 19.8723 7.02437 19.7374 7.26827C19.6925 8.36582 19.8498 9.53655 20.097 10.0244C20.7038 10.5365 21.6028 10.7804 22.8838 10.7804Z" fill="white"/>
<path d="M27.7779 1.53658C28.497 1.65853 28.6993 2.09755 29.1263 3.26828L31.2838 9.1707C31.6434 10.1707 31.7109 10.6341 31.7109 10.9512C31.7109 11.2439 31.5311 11.6829 31.3962 11.9756C31.1715 12.4878 30.9917 12.9512 30.7445 13.317C30.5197 13.6341 30.1826 13.8292 29.6432 13.8292H29.1038C28.3172 13.8292 27.8228 14.3658 27.8228 15.0975C27.8228 15.756 28.0476 16.5853 29.2612 16.5609C30.0927 16.5365 30.722 16.0487 31.1939 14.9512L34.61 7.26827L35.8012 4.60974C36.2956 3.48779 36.8575 2.43902 37.1271 2.04877C37.3294 1.75609 37.7115 1.56097 38.161 1.51219L38.588 1.46341C38.7902 1.31707 38.7678 0.707315 38.543 0.609754C37.9587 0.658534 37.3744 0.682925 36.79 0.682925C35.7787 0.682925 35.1045 0.658534 34.61 0.609754C34.3628 0.682925 34.3403 1.29268 34.5426 1.46341L34.9921 1.56097C35.2618 1.60975 35.4865 1.7317 35.4865 1.90243C35.4865 2.17072 35.1269 3.19511 34.655 4.36584L34.2504 5.36583C34.0257 5.90242 33.801 6.46339 33.5537 6.97559C33.2841 6.36583 32.7896 4.87803 32.5424 4.19511C32.1154 2.95121 31.8682 2.31707 31.8682 2.02438C31.8682 1.80487 31.9131 1.70731 32.5424 1.56097L32.9919 1.46341C33.1717 1.29268 33.1492 0.707315 32.9245 0.609754C32.0929 0.658534 31.2389 0.682925 30.4074 0.682925C29.2162 0.682925 28.2498 0.658534 27.4408 0.609754C27.216 0.707315 27.216 1.29268 27.3733 1.46341L27.7779 1.53658Z" fill="white"/>
<path d="M38.6579 1.58536C39.2198 1.7317 39.3546 1.92682 39.894 3.12194C41.3099 6.36583 41.7819 7.53656 42.9505 10.6097C43.0854 10.7073 43.2876 10.7804 43.4899 10.7804C43.7146 10.7804 43.8944 10.7073 44.0068 10.6097C45.0406 7.99997 46.052 5.39022 47.2206 2.87804C47.6701 1.95121 47.8499 1.65853 48.5241 1.53658L48.9062 1.46341C49.0635 1.31707 49.1085 0.731705 48.8612 0.609754C48.3668 0.634145 47.8499 0.682925 47.1307 0.682925C46.479 0.682925 46.007 0.658534 45.2878 0.609754C45.0631 0.731705 45.0631 1.31707 45.2654 1.46341L45.58 1.53658C45.9621 1.63414 46.1194 1.70731 46.1194 1.82926C46.1194 1.9756 46.0744 2.19511 45.9845 2.43902C45.5126 3.92682 44.9507 5.21949 44.4563 6.439C43.9843 5.26827 43.4899 3.99999 43.0404 2.65853C42.928 2.29267 42.8381 1.95121 42.8381 1.80487C42.8381 1.65853 42.9505 1.63414 43.2202 1.56097L43.5798 1.46341C43.7146 1.34146 43.7371 0.731705 43.5348 0.609754C42.7033 0.634145 41.8718 0.682925 41.0402 0.682925C39.8491 0.682925 39.085 0.658534 38.2534 0.609754C37.9612 0.707315 37.9837 1.29268 38.186 1.46341L38.6579 1.58536Z" fill="white"/>
<path d="M57.2979 1.2439C56.4664 0.756095 55.2753 0.341462 53.9493 0.341462C51.0276 0.341462 49.5668 2.24389 49.5668 4.26828C49.5668 5.75608 50.3534 6.9268 51.4771 7.41461C51.5895 7.63412 51.4996 7.78046 51.2973 7.95119C51.1625 8.09753 50.4883 8.65851 49.859 9.09753C49.7466 9.21948 49.7017 9.4146 49.7017 9.60972C49.7017 10.4634 50.2635 11.2683 51.0951 11.5609C51.2749 11.6097 51.3423 11.7317 51.0726 11.9024C50.8254 12.0487 50.4208 12.3658 49.9714 12.6585C49.5893 12.9024 49.2522 13.2926 49.2522 13.878C49.2522 15.3902 50.4208 16.9999 53.6571 16.9999C54.9606 16.9999 56.4215 16.6829 57.5901 15.9268C58.7588 15.1463 59.6128 13.7804 59.6128 12.2439C59.6128 9.78045 57.8149 9.29265 56.1293 9.29265C55.073 9.29265 54.1516 9.34143 53.3874 9.34143C52.7132 9.34143 52.2412 8.99997 52.2412 8.46338C52.2412 8.1707 52.3986 7.97558 52.6233 7.87802C52.8705 7.90241 53.1852 7.95119 53.5448 7.95119C57.0957 7.95119 58.152 5.60974 58.152 3.68291C58.152 3.26828 58.1295 3.04877 58.0845 2.82926H59.7476C59.9724 2.68292 60.0848 2.24389 60.0848 1.85365C60.0848 1.58536 60.0398 1.39024 59.8825 1.2439H57.2979ZM52.4885 3.85365C52.4885 2.19511 53.1627 1.46341 53.8594 1.46341C54.6685 1.46341 55.3202 2.39024 55.3202 4.36584C55.3202 6.14632 54.7359 6.85363 54.0392 6.85363C53.1402 6.85363 52.4885 5.7073 52.4885 3.85365ZM55.0505 11.8048C56.2866 11.8048 57.253 12.3658 57.253 13.7804C57.253 14.9512 56.3091 15.7073 54.8932 15.7073C53.1177 15.7073 51.9716 14.6341 51.9716 12.9756C51.9716 12.6585 52.0615 12.3414 52.2862 12.1219C52.4885 11.9512 52.9379 11.8048 53.5448 11.8048H55.0505Z" fill="white"/>
<path d="M61.7227 7.60973C61.7227 9.31704 61.6328 9.51216 60.8237 9.60972L60.4641 9.6585C60.2843 9.80484 60.2843 10.3658 60.4866 10.5122C61.2732 10.4634 62.1946 10.439 63.1385 10.439C64.2173 10.439 64.9365 10.4634 65.6332 10.5122C65.8354 10.3658 65.8354 9.80484 65.6556 9.6585L65.2961 9.60972C64.7342 9.53655 64.6443 9.31704 64.6443 7.97558V3.60974C64.6443 3.17072 64.6893 2.87804 64.8241 2.70731C65.0039 2.43902 65.4534 2.12194 66.0827 2.12194C67.2064 2.12194 67.6559 2.90243 67.6559 3.85365V7.97558C67.6559 9.31704 67.566 9.48777 67.049 9.58533L66.6445 9.6585C66.4647 9.80484 66.4647 10.3658 66.667 10.5122C67.3187 10.4634 68.1952 10.439 69.0942 10.439C70.173 10.439 71.1169 10.4634 71.8136 10.5122C72.0159 10.3658 72.0158 9.80484 71.8361 9.6585L71.4765 9.60972C70.6674 9.51216 70.5775 9.31704 70.5775 7.60973V3.41462C70.5775 1.7317 69.6336 0.341462 67.7682 0.341462C66.7344 0.341462 65.6781 0.999997 65.1837 1.31707C65.0488 1.39024 64.8241 1.51219 64.7567 1.51219C64.6893 1.51219 64.6443 1.46341 64.6443 1.31707C64.6443 1.14634 64.7117 0.560974 64.7117 0.219511C64.6218 0.073171 64.487 0 64.3072 0C63.6554 0.439023 62.0373 1.09756 60.981 1.41463C60.8237 1.56097 60.8237 1.99999 60.981 2.14633L61.2956 2.36585C61.7227 2.65853 61.7227 2.95121 61.7227 3.92682V7.60973Z" fill="white"/>
<path d="M74.4977 10.6408C74.9493 10.6408 75.2414 10.3093 75.2414 9.84808C75.2414 9.38688 74.9493 8.99775 74.4977 8.99775C74.0728 8.99775 73.754 9.35806 73.754 9.84808C73.754 10.3381 74.1126 10.6408 74.4977 10.6408Z" fill="white"/>
<path d="M80.1051 4.55874C77.9005 4.55874 76.8912 6.21616 76.8912 7.7727C76.8912 8.7095 77.1967 9.41571 77.6615 9.90573C78.1263 10.3957 78.777 10.6408 79.4809 10.6408C80.2511 10.6408 81.2472 10.2372 81.6987 9.1707C81.6854 9.04099 81.5659 8.9401 81.4596 8.96893C81.1542 9.45895 80.7558 9.83367 79.9855 9.83367C78.5645 9.83367 77.8474 8.49332 77.8474 7.36915C77.8474 5.84144 78.7505 5.04876 79.6801 5.04876C80.2246 5.04876 80.7159 5.42348 81.0081 5.81262C81.0612 5.88468 81.1276 5.9135 81.194 5.9135C81.3534 5.9135 81.4862 5.63967 81.4862 5.38025C81.4862 5.13524 81.3932 4.90464 81.287 4.80375C80.9284 4.6308 80.4105 4.55874 80.1051 4.55874Z" fill="white"/>
<path d="M85.2793 4.55874C83.7122 4.55874 82.4506 5.85585 82.4506 7.67181C82.4506 9.47336 83.6458 10.6408 85.1731 10.6408C86.8331 10.6408 87.9752 9.34365 87.9752 7.5421C87.9752 5.76938 86.7667 4.55874 85.2793 4.55874ZM86.8331 7.7727C86.8331 8.88245 86.4745 10.2084 85.3059 10.2084C84.1372 10.2084 83.5927 8.79598 83.5927 7.48445C83.5927 5.89909 84.2435 4.99111 85.1199 4.99111C86.3816 4.99111 86.8331 6.54765 86.8331 7.7727Z" fill="white"/>
<path d="M97.0397 8.8248C97.0397 9.86249 97.0265 9.9922 96.5351 10.0787L96.296 10.1219C96.2031 10.194 96.2296 10.439 96.3226 10.4822C96.6944 10.4534 97.053 10.439 97.5311 10.439C97.9959 10.439 98.381 10.4534 98.8193 10.4822C98.9122 10.439 98.9388 10.194 98.8458 10.1219L98.5271 10.0787C98.049 10.0066 98.0225 9.86249 98.0225 8.8248V6.34588C98.0225 5.35142 97.5045 4.55874 96.4421 4.55874C95.818 4.55874 95.1672 4.89023 94.636 5.29377C94.5165 5.38025 94.4235 5.4379 94.304 5.40907C93.9322 4.81816 93.5603 4.55874 92.8963 4.55874C92.2588 4.55874 91.6347 4.90464 91.13 5.29377C91.0371 5.29377 90.9839 5.22171 90.9839 5.13524C90.9839 5.00553 90.9839 4.78934 91.0105 4.45786C90.9839 4.38579 90.9175 4.35697 90.8644 4.35697C90.5988 4.57315 89.8418 4.94788 89.5364 5.06317C89.47 5.10641 89.47 5.26495 89.5231 5.3226L89.6426 5.40907C90.0012 5.66849 90.0012 5.74056 90.0012 6.30264V8.8248C90.0012 9.86249 89.9879 10.0066 89.4966 10.0787L89.1778 10.1219C89.0849 10.194 89.1114 10.439 89.2044 10.4822C89.6161 10.4534 90.0145 10.439 90.4926 10.439C90.9574 10.439 91.3425 10.4534 91.7011 10.4822C91.794 10.439 91.8206 10.194 91.7276 10.1219L91.4886 10.0787C91.0105 9.9922 90.9839 9.86249 90.9839 8.8248V6.59089C90.9839 6.12969 91.0503 5.94233 91.1831 5.76938C91.3824 5.50996 91.7542 5.25054 92.2987 5.25054C93.1221 5.25054 93.5205 5.76938 93.5205 6.73501V8.8248C93.5205 9.86249 93.5072 9.9922 93.0158 10.0787L92.7768 10.1219C92.6838 10.194 92.7104 10.439 92.8033 10.4822C93.1752 10.4534 93.5338 10.439 94.0118 10.439C94.4767 10.439 94.8618 10.4534 95.2602 10.4822C95.3531 10.439 95.3797 10.194 95.2867 10.1219L95.0079 10.0787C94.5298 10.0066 94.5032 9.86249 94.5032 8.8248V6.61971C94.5032 6.11528 94.543 5.97115 94.7024 5.75497C94.8883 5.49555 95.3 5.25054 95.8047 5.25054C96.6413 5.25054 97.0397 5.75497 97.0397 6.73501V8.8248Z" fill="white"/>
</svg>
