<svg width="266" height="57" viewBox="0 0 266 57" fill="none" xmlns="http://www.w3.org/2000/svg">
<g clip-path="url(#clip0)">
<path d="M28.2079 15.6199C30.7797 15.6199 31.1946 14.4749 31.1946 12.9211C31.1946 6.62413 26.5485 1.14493 17.9203 1.14493C7.54974 1.14493 0 9.15928 0 19.4634C0 28.3773 6.05639 36.1464 17.2566 36.1464C22.2344 36.1464 28.3738 33.7748 31.7753 26.8235C31.7753 25.4333 30.5309 24.7791 29.6182 24.9427C27.3782 28.7045 24.2255 29.1951 21.9025 29.1951C14.1869 29.1951 10.2046 23.2252 10.2046 17.0919C10.2046 15.7833 10.3705 15.6199 12.2787 15.6199H28.2079ZM14.6846 12.0215C12.0298 12.0215 10.8683 11.9398 10.8683 10.7949C10.8683 8.17793 13.855 4.90677 17.3396 4.90677C20.1603 4.90677 21.7367 6.7059 21.7367 9.40461C21.7367 10.2224 21.5707 11.0402 21.1558 11.2855C20.2433 11.858 18.9158 12.0215 17.7543 12.0215H14.6846Z" fill="#EAF1FE"/>
<path d="M64.4869 13.0029C64.9017 4.57964 60.8365 1.14493 53.8674 1.14493C47.977 1.14493 42.7502 3.92541 39.9295 6.13345C37.9384 7.68726 35.9471 10.3042 35.9471 12.4304C35.9471 13.5753 36.445 14.4749 37.8554 14.4749C39.3487 14.4749 42.5843 13.4936 43.8288 12.594C44.5755 12.0215 45.0732 11.2855 45.2392 9.97706C45.8199 6.46057 47.5622 5.31566 49.5533 5.31566C53.1208 5.31566 54.3653 9.24105 54.3653 12.3487C54.3653 13.33 54.2823 14.2296 54.1994 15.1291C54.1164 15.7833 53.7015 16.3559 52.2081 16.7647C49.8852 17.4189 47.5622 18.0732 44.4095 19.0546C38.3531 20.8536 35.7813 23.3888 35.7813 27.5595C35.7813 33.284 40.2614 36.1464 45.0732 36.1464C48.1429 36.1464 50.6319 34.5926 52.1253 33.5294C52.9548 32.957 53.4527 32.6298 53.8674 32.6298C54.2823 32.6298 54.6141 32.7934 55.1948 33.284C57.4349 35.165 59.2602 36.1464 62.1639 36.1464C66.8929 36.1464 70.7921 33.0388 71.7877 31.7304C72.0367 30.9943 71.5388 30.0129 70.7921 29.8494C69.4647 30.5854 68.6351 30.8308 67.6396 30.8308C65.9803 30.8308 63.5743 29.3587 63.9062 23.7977L64.4869 13.0029ZM53.7845 26.8235C53.7015 29.3587 53.2037 30.8308 50.6319 30.8308C48.3089 30.8308 46.4006 28.5409 46.4006 25.9241C46.4006 22.0804 49.6363 20.6902 53.3697 20.1994C53.9504 20.1176 54.0334 20.363 53.9504 21.6714L53.7845 26.8235Z" fill="#EAF1FE"/>
<path d="M84.4583 36.1464C92.2569 36.1464 98.5623 32.4664 98.6452 25.188C98.6452 19.8724 95.1606 16.4377 89.5191 13.7389C85.7857 11.9398 84.2094 10.386 84.2094 8.50505C84.2094 6.29701 85.9517 4.90677 88.3577 4.90677C91.0955 4.90677 93.1695 6.62412 94.8289 11.3673C95.3266 11.9398 97.4007 11.9398 97.7326 11.0402C97.7326 7.93258 97.3178 4.66143 96.4882 2.86229C95.5755 2.20806 91.8421 1.14493 87.611 1.14493C80.476 1.14493 74.4196 4.57965 74.4196 11.6944C74.4196 16.6011 77.9872 19.5452 82.965 21.9986C85.7857 23.3888 88.4407 25.1062 88.4407 28.1321C88.4407 30.9126 86.6154 32.3846 84.1264 32.3846C79.8953 32.3846 76.7426 27.5595 75.6641 24.2066C75.1663 23.4706 73.3411 23.5524 72.8434 24.3702C72.6774 28.0503 73.2581 31.9756 74.1708 33.6112C76.4108 35.3286 79.7293 36.1464 84.4583 36.1464Z" fill="#EAF1FE"/>
<path d="M102.525 5.15208C105.18 5.56096 105.926 7.03299 107.503 10.9584L115.467 30.7489C116.795 34.1018 117.043 35.6556 117.043 36.7188C117.043 37.7001 116.38 39.1721 115.882 40.1535C115.052 41.8709 114.389 43.4247 113.476 44.6514C112.646 45.7144 111.402 46.3688 109.411 46.3688H107.42C104.516 46.3688 102.691 48.1678 102.691 50.6213C102.691 52.8293 103.52 55.6098 108 55.528C111.07 55.4462 113.393 53.8106 115.135 50.1305L127.746 24.3702L132.143 15.4563C133.968 11.6944 136.042 8.17789 137.038 6.86943C137.784 5.88809 139.195 5.23384 140.854 5.07029H143.026C143.773 4.57961 143.226 3.03461 142.397 2.70749C140.228 2.65049 138.06 2.66917 135.793 2.56499C132.06 2.56499 129.571 2.20803 127.746 2.04446C126.833 2.28981 126.75 4.33428 127.497 4.90673L129.156 5.23384C130.152 5.3974 130.982 5.80631 130.982 6.37876C130.982 7.27832 129.654 10.713 127.912 14.6384L126.418 17.9913C125.589 19.7905 124.759 21.6714 123.847 23.3888C122.851 21.3444 121.026 16.3559 120.113 14.066C118.537 9.89526 117.624 7.769 117.624 6.78765C117.624 6.05164 117.79 5.72453 120.113 5.23384L121.772 4.90673C122.436 4.33428 122.353 2.37159 121.524 2.04446C118.454 2.20803 115.301 2.28981 112.232 2.28981C107.834 2.28981 104.267 2.20803 101.28 2.04446C100.451 2.37159 100.451 4.33428 101.031 4.90673L102.525 5.15208Z" fill="#EAF1FE"/>
<path d="M142.397 5.13001C144.471 5.62068 145.265 6.55359 147.257 10.5608C152.483 21.4374 154.225 25.3627 158.539 35.6669C159.038 35.9941 159.784 36.2393 160.531 36.2393C161.361 36.2393 162.024 35.9941 162.439 35.6669C166.256 26.9166 169.988 18.1662 174.302 9.74297C175.962 6.63535 176.625 5.65401 179.115 5.24512L180.524 4.99978C181.106 4.50911 181.272 2.5464 180.36 2.13751C178.534 2.21929 176.625 2.38285 173.971 2.38285C171.564 2.38285 169.822 2.30107 167.168 2.13751C166.338 2.5464 166.338 4.50911 167.084 4.99978L168.246 5.24512C169.657 5.57223 170.237 5.81757 170.237 6.22646C170.237 6.71713 170.071 7.45315 169.74 8.27094C167.998 13.2595 165.923 17.5938 164.097 21.6827C162.355 17.7574 160.531 13.5048 158.871 9.00695C158.457 7.78027 158.124 6.63535 158.124 6.14468C158.124 5.65401 158.539 5.57223 159.535 5.32689L160.862 4.99978C161.361 4.59088 161.443 2.5464 160.697 2.13751C157.627 2.21929 154.558 2.45101 151.487 2.45101C147.149 2.63317 145.337 2.65051 142.397 2.70751C141.318 3.03464 140.204 4.42733 140.951 4.99978L142.397 5.13001Z" fill="#EAF1FE"/>
<path d="M211.499 4.17075C208.43 2.53517 204.032 1.14493 199.137 1.14493C188.353 1.14493 182.959 7.52369 182.959 14.3113C182.959 19.2999 185.863 23.2252 190.011 24.8609C190.426 25.5969 190.095 26.0875 189.347 26.6601C188.85 27.1507 186.36 29.0315 184.037 30.5036C183.622 30.9125 183.458 31.5668 183.458 32.221C183.458 35.0832 185.531 37.7819 188.601 38.7633C189.265 38.9269 189.513 39.3357 188.517 39.9081C187.605 40.3989 186.112 41.462 184.452 42.4434C183.043 43.2612 181.798 44.5696 181.798 46.5323C181.798 51.6026 186.112 57 198.059 57C202.871 57 208.264 55.9368 212.577 53.4018C216.891 50.7847 220.044 46.2052 220.044 41.0531C220.044 32.7934 213.407 31.1578 207.185 31.1578C203.286 31.1578 199.884 31.3214 197.063 31.3214C194.575 31.3214 192.833 30.1765 192.833 28.3773C192.833 27.3961 193.412 26.7417 194.242 26.4147C195.154 26.4965 196.317 26.6601 197.644 26.6601C210.753 26.6601 214.652 18.8092 214.652 12.3487C214.652 10.9584 214.568 10.2224 214.403 9.48639H220.541C221.371 8.99572 221.786 7.52369 221.786 6.21523C221.786 5.31566 221.621 4.66143 221.04 4.17075H211.499ZM193.745 12.9211C193.745 7.36013 196.234 4.90677 198.806 4.90677C201.793 4.90677 204.198 8.01436 204.198 14.6385C204.198 20.6084 202.041 22.98 199.47 22.98C196.15 22.98 193.745 19.1363 193.745 12.9211ZM203.202 39.5811C207.766 39.5811 211.333 41.462 211.333 46.2052C211.333 50.1305 207.849 52.6657 202.621 52.6657C196.068 52.6657 191.837 49.0675 191.837 43.5064C191.837 42.4434 192.168 41.3802 192.997 40.6442C193.745 40.0717 195.404 39.5811 197.644 39.5811H203.202Z" fill="#EAF1FE"/>
<path d="M227.833 25.5151C227.833 31.2396 227.501 31.8938 224.514 32.221L223.187 32.3845C222.523 32.8752 222.523 34.756 223.269 35.2468C226.174 35.0832 229.575 35.0014 233.059 35.0014C237.042 35.0014 239.696 35.0832 242.268 35.2468C243.016 34.756 243.016 32.8752 242.352 32.3845L241.025 32.221C238.95 31.9756 238.618 31.2396 238.618 26.7417V12.1033C238.618 10.6313 238.784 9.64993 239.281 9.07748C239.946 8.1779 241.605 7.11478 243.928 7.11478C248.077 7.11478 249.735 9.73171 249.735 12.9211V26.7417C249.735 31.2396 249.404 31.812 247.496 32.1392L246.002 32.3845C245.339 32.8752 245.339 34.756 246.085 35.2468C248.492 35.0832 251.727 35.0014 255.045 35.0014C259.028 35.0014 262.512 35.0832 265.083 35.2468C265.831 34.756 265.831 32.8752 265.167 32.3845L263.839 32.221C260.852 31.8938 260.521 31.2396 260.521 25.5151V11.4491C260.521 5.80632 257.037 1.14491 250.15 1.14491C246.333 1.14491 242.434 3.35294 240.61 4.41607C240.111 4.6614 239.281 5.07031 239.033 5.07031C238.784 5.07031 238.618 4.90674 238.618 4.41607C238.618 3.84362 238.867 1.88091 238.867 0.736011C238.536 0.245339 238.038 0 237.373 0C234.968 1.47202 228.994 3.68006 225.095 4.74318C224.514 5.23385 224.514 6.70588 225.095 7.19656L226.256 7.93256C227.833 8.91392 227.833 9.89527 227.833 13.1664V25.5151Z" fill="#EAF1FE"/>
</g>
<defs>
<clipPath id="clip0">
<rect width="266" height="57" fill="white"/>
</clipPath>
</defs>
</svg>
