<svg width="320" height="320" viewBox="0 0 320 320" fill="none" xmlns="http://www.w3.org/2000/svg">
<rect width="320" height="320" fill="#C4C4C4"/>
<g clip-path="url(#clip0)">
<path d="M59.8293 147.798C62.2754 147.798 62.67 146.713 62.67 145.241C62.67 139.275 58.251 134.085 50.0445 134.085C40.1808 134.085 33 141.677 33 151.439C33 159.884 38.7604 167.244 49.4132 167.244C54.1478 167.244 59.9871 164.997 63.2224 158.412C63.2224 157.095 62.0388 156.475 61.1707 156.63C59.0402 160.194 56.0416 160.659 53.8321 160.659C46.4935 160.659 42.7059 155.003 42.7059 149.192C42.7059 147.953 42.8637 147.798 44.6786 147.798H59.8293ZM46.967 144.389C44.4419 144.389 43.3372 144.311 43.3372 143.227C43.3372 140.747 46.1779 137.649 49.4922 137.649C52.1751 137.649 53.6744 139.353 53.6744 141.91C53.6744 142.684 53.5165 143.459 53.1219 143.692C52.254 144.234 50.9913 144.389 49.8867 144.389H46.967Z" fill="#CDCDCD"/>
<path d="M94.3353 145.319C94.7298 137.339 90.8633 134.085 84.2348 134.085C78.6322 134.085 73.6609 136.719 70.978 138.811C69.0842 140.283 67.1903 142.762 67.1903 144.776C67.1903 145.861 67.6639 146.713 69.0053 146.713C70.4257 146.713 73.5031 145.783 74.6868 144.931C75.397 144.389 75.8704 143.692 76.0283 142.452C76.5806 139.121 78.2377 138.036 80.1315 138.036C83.5246 138.036 84.7084 141.755 84.7084 144.699C84.7084 145.628 84.6294 146.481 84.5505 147.333C84.4716 147.953 84.077 148.495 82.6566 148.882C80.4472 149.502 78.2377 150.122 75.2391 151.052C69.4787 152.756 67.0326 155.158 67.0326 159.109C67.0326 164.532 71.2937 167.244 75.8704 167.244C78.7901 167.244 81.1574 165.772 82.5778 164.765C83.3668 164.222 83.8403 163.912 84.2348 163.912C84.6294 163.912 84.945 164.067 85.4973 164.532C87.6279 166.314 89.364 167.244 92.1258 167.244C96.6237 167.244 100.332 164.3 101.279 163.06C101.516 162.363 101.043 161.433 100.332 161.278C99.0698 161.976 98.2807 162.208 97.3339 162.208C95.7557 162.208 93.4672 160.814 93.7829 155.545L94.3353 145.319ZM84.1559 158.412C84.077 160.814 83.6036 162.208 81.1574 162.208C78.9479 162.208 77.1329 160.039 77.1329 157.56C77.1329 153.918 80.2105 152.601 83.7614 152.136C84.3137 152.059 84.3927 152.291 84.3137 153.531L84.1559 158.412Z" fill="#CDCDCD"/>
<path d="M113.331 167.244C120.748 167.244 126.745 163.758 126.824 156.862C126.824 151.826 123.51 148.573 118.144 146.016C114.593 144.311 113.094 142.839 113.094 141.057C113.094 138.966 114.751 137.649 117.039 137.649C119.643 137.649 121.616 139.275 123.194 143.769C123.668 144.311 125.641 144.311 125.956 143.459C125.956 140.515 125.562 137.416 124.773 135.712C123.905 135.092 120.354 134.085 116.329 134.085C109.543 134.085 103.783 137.339 103.783 144.079C103.783 148.727 107.176 151.516 111.91 153.841C114.593 155.158 117.118 156.785 117.118 159.651C117.118 162.286 115.382 163.68 113.015 163.68C108.991 163.68 105.992 159.109 104.966 155.933C104.493 155.235 102.757 155.313 102.283 156.088C102.126 159.574 102.678 163.293 103.546 164.842C105.676 166.469 108.833 167.244 113.331 167.244Z" fill="#CDCDCD"/>
<path d="M130.514 137.881C133.039 138.268 133.749 139.663 135.249 143.382L142.824 162.131C144.087 165.307 144.323 166.779 144.323 167.786C144.323 168.716 143.692 170.11 143.219 171.04C142.429 172.667 141.798 174.139 140.93 175.301C140.141 176.308 138.957 176.928 137.064 176.928H135.17C132.408 176.928 130.672 178.633 130.672 180.957C130.672 183.049 131.461 185.683 135.722 185.605C138.642 185.528 140.851 183.978 142.508 180.492L154.503 156.088L158.685 147.643C160.421 144.079 162.394 140.747 163.34 139.508C164.051 138.578 165.392 137.958 166.97 137.803H169.036C169.747 137.339 169.227 135.875 168.437 135.565C166.375 135.511 164.312 135.529 162.157 135.43C158.606 135.43 156.239 135.092 154.503 134.937C153.635 135.169 153.556 137.106 154.266 137.648L155.844 137.958C156.791 138.113 157.58 138.501 157.58 139.043C157.58 139.895 156.318 143.149 154.66 146.868L153.24 150.044C152.451 151.749 151.662 153.531 150.794 155.158C149.847 153.221 148.111 148.495 147.243 146.326C145.744 142.374 144.876 140.36 144.876 139.43C144.876 138.733 145.033 138.423 147.243 137.958L148.821 137.648C149.452 137.106 149.373 135.247 148.584 134.937C145.665 135.092 142.666 135.169 139.747 135.169C135.564 135.169 132.171 135.092 129.331 134.937C128.541 135.247 128.541 137.106 129.094 137.648L130.514 137.881Z" fill="#CDCDCD"/>
<path d="M168.438 137.86C170.41 138.325 171.166 139.209 173.06 143.005C178.031 153.309 179.688 157.028 183.791 166.79C184.265 167.1 184.975 167.332 185.686 167.332C186.475 167.332 187.106 167.1 187.501 166.79C191.131 158.5 194.681 150.21 198.784 142.23C200.362 139.286 200.993 138.356 203.361 137.969L204.702 137.737C205.255 137.272 205.413 135.412 204.545 135.025C202.808 135.102 200.993 135.257 198.469 135.257C196.18 135.257 194.523 135.18 191.998 135.025C191.209 135.412 191.209 137.272 191.918 137.737L193.024 137.969C194.366 138.279 194.917 138.511 194.917 138.899C194.917 139.364 194.759 140.061 194.444 140.836C192.787 145.562 190.814 149.668 189.078 153.541C187.421 149.823 185.686 145.794 184.107 141.533C183.712 140.371 183.396 139.286 183.396 138.821C183.396 138.356 183.791 138.279 184.738 138.047L186 137.737C186.475 137.349 186.553 135.412 185.844 135.025C182.923 135.102 180.004 135.322 177.084 135.322C172.957 135.495 171.234 135.511 168.438 135.565C167.412 135.875 166.352 137.194 167.063 137.737L168.438 137.86Z" fill="#CDCDCD"/>
<path d="M234.162 136.951C231.243 135.402 227.061 134.085 222.405 134.085C212.147 134.085 207.017 140.128 207.017 146.558C207.017 151.284 209.78 155.003 213.724 156.552C214.119 157.25 213.804 157.714 213.093 158.257C212.62 158.722 210.253 160.504 208.043 161.898C207.648 162.286 207.492 162.905 207.492 163.525C207.492 166.237 209.463 168.793 212.384 169.723C213.015 169.878 213.251 170.265 212.304 170.808C211.436 171.273 210.016 172.28 208.438 173.209C207.097 173.984 205.913 175.224 205.913 177.083C205.913 181.887 210.016 187 221.379 187C225.956 187 231.085 185.993 235.188 183.591C239.291 181.112 242.29 176.773 242.29 171.892C242.29 164.067 235.977 162.518 230.059 162.518C226.351 162.518 223.116 162.673 220.432 162.673C218.065 162.673 216.408 161.588 216.408 159.884C216.408 158.954 216.96 158.334 217.749 158.024C218.617 158.102 219.722 158.257 220.984 158.257C233.453 158.257 237.161 150.819 237.161 144.699C237.161 143.382 237.082 142.684 236.925 141.987H242.763C243.552 141.522 243.947 140.128 243.947 138.888C243.947 138.036 243.79 137.416 243.237 136.951H234.162ZM217.276 145.241C217.276 139.973 219.644 137.649 222.09 137.649C224.931 137.649 227.219 140.593 227.219 146.868C227.219 152.524 225.167 154.771 222.721 154.771C219.564 154.771 217.276 151.129 217.276 145.241ZM226.271 170.498C230.612 170.498 234.004 172.28 234.004 176.773C234.004 180.492 230.691 182.894 225.719 182.894C219.486 182.894 215.461 179.485 215.461 174.217C215.461 173.209 215.776 172.202 216.565 171.505C217.276 170.963 218.855 170.498 220.984 170.498H226.271Z" fill="#CDCDCD"/>
<path d="M249.699 157.172C249.699 162.595 249.382 163.215 246.542 163.525L245.279 163.68C244.648 164.145 244.648 165.927 245.358 166.392C248.12 166.237 251.356 166.159 254.669 166.159C258.457 166.159 260.982 166.237 263.428 166.392C264.139 165.927 264.139 164.145 263.508 163.68L262.246 163.525C260.272 163.293 259.956 162.595 259.956 158.334V144.466C259.956 143.072 260.114 142.142 260.587 141.6C261.22 140.747 262.797 139.74 265.007 139.74C268.953 139.74 270.53 142.22 270.53 145.241V158.334C270.53 162.595 270.215 163.138 268.4 163.448L266.98 163.68C266.349 164.145 266.349 165.927 267.058 166.392C269.347 166.237 272.425 166.159 275.58 166.159C279.368 166.159 282.682 166.237 285.128 166.392C285.839 165.927 285.839 164.145 285.208 163.68L283.944 163.525C281.104 163.215 280.789 162.595 280.789 157.172V143.846C280.789 138.501 277.475 134.085 270.925 134.085C267.295 134.085 263.586 136.176 261.851 137.184C261.377 137.416 260.587 137.803 260.351 137.803C260.114 137.803 259.956 137.648 259.956 137.184C259.956 136.641 260.193 134.782 260.193 133.697C259.878 133.232 259.405 133 258.772 133C256.484 134.395 250.803 136.486 247.094 137.494C246.542 137.958 246.542 139.353 247.094 139.818L248.199 140.515C249.699 141.445 249.699 142.374 249.699 145.473V157.172Z" fill="#CDCDCD"/>
</g>
<defs>
<clipPath id="clip0">
<rect width="253" height="54" fill="white" transform="translate(33 133)"/>
</clipPath>
</defs>
</svg>
