<svg width="562" height="646" viewBox="0 0 562 646" fill="none" xmlns="http://www.w3.org/2000/svg">
<path d="M262.564 2.88025C239.085 9.27179 227.345 15.2372 225.996 21.7708C225.591 23.9014 224.916 26.4579 224.646 27.5942C224.377 28.5885 225.051 39.6672 226.266 52.3083C228.83 78.8688 227.75 93.0722 221.948 105.571C218.034 113.951 213.446 117.218 205.485 117.218C201.032 117.218 199.413 116.366 195.365 111.679C190.372 105.855 185.649 94.2086 183.49 82.5617C182.815 78.7267 182.275 66.0856 182.275 54.4388V33.2756L173.234 38.5309C149.08 52.5923 133.157 64.5233 130.054 70.9149C123.307 84.5502 132.887 126.308 151.374 163.806C156.502 174.458 160.685 184.401 160.415 185.963C159.875 189.798 150.969 194.485 146.381 193.349C141.928 192.07 138.96 186.531 131.808 165.936C125.601 148.182 122.362 132.842 120.878 115.088C119.259 94.2085 118.719 91.6519 116.425 91.6519C110.892 91.7939 101.986 98.0435 87.8177 111.679C69.196 129.717 64.8779 137.529 64.8779 153.437C64.8779 159.118 66.0924 167.925 67.5767 173.748C71.6249 188.946 89.437 231.982 99.5574 250.731C104.28 259.679 108.598 269.053 109.003 271.468C110.353 279.99 102.391 283.257 93.755 277.575C81.2056 269.479 58.6707 236.953 45.3117 207.836L36.9454 189.372L31.5479 195.195C21.8322 205.848 9.5527 231.272 6.85391 246.47C5.09969 255.844 7.12379 265.928 12.3864 273.456C21.8322 287.092 64.4731 330.412 87.8177 350.155C92.6755 354.274 104.685 363.364 114.536 370.324C124.386 377.426 134.777 385.38 137.475 388.078L142.468 393.049L139.23 395.748C135.316 399.157 131.268 398.589 119.394 392.765C110.353 388.504 63.5285 359.387 54.7575 352.712C45.4466 345.61 27.2298 325.867 16.9744 311.522L6.98885 297.744L4.96476 304.42C1.18645 316.493 -3.94126 342.059 -4.7509 353.706C-6.37017 376.147 -0.432828 384.954 23.0467 395.464C47.8755 406.543 116.56 441.057 121.148 444.75C126.68 449.153 126.95 453.982 122.092 459.096C118.989 462.362 117.909 462.646 110.892 461.936C100.502 460.942 68.2514 450.574 54.3526 443.756C48.1454 440.773 35.731 433.671 26.69 427.99C17.6491 422.309 9.68764 417.337 9.01294 417.053C6.98885 416.201 9.28282 451.852 12.1166 465.913C16.5696 488.213 24.3961 501.564 38.1599 510.37C48.5502 516.904 55.5671 517.472 72.2996 512.927C96.049 506.535 126.545 504.405 135.721 508.382C141.389 510.938 144.762 516.336 145.032 523.153C145.167 528.267 144.897 528.551 136.261 532.954C117.909 542.47 96.4538 545.311 74.4586 541.334C67.4418 540.055 61.5044 539.203 61.2346 539.629C60.0201 540.908 86.7382 567.042 93.89 571.587C107.654 580.393 120.203 579.257 144.492 567.184C170.671 554.259 201.167 530.539 223.162 505.967L233.552 494.32L228.965 505.825C215.471 539.487 209.263 567.468 209.263 595.023C209.263 611.925 212.232 642.462 214.121 645.871C214.661 646.723 223.297 643.173 228.02 640.332C228.155 640.19 227.21 636.355 225.726 631.81C219.924 614.482 218.574 588.205 222.083 566.616C224.781 550.992 233.148 524.005 240.839 507.103L246.642 494.32L247.721 500.002C250.555 516.762 258.381 547.583 262.564 559.94C272.01 586.359 280.242 599 293.196 605.675C305.745 612.351 320.049 611.641 337.051 603.545L344.878 599.852L335.162 596.585C318.969 591.33 308.309 582.524 301.832 569.315C298.728 562.923 299.133 560.224 303.721 553.549C306.825 549.004 308.714 547.583 311.548 547.583C317.62 547.583 326.931 554.827 337.321 567.894C342.719 574.57 349.061 580.961 351.625 582.382C358.237 585.649 369.706 587.353 384.82 587.353C395.885 587.353 398.584 586.927 404.656 583.66C413.562 578.973 422.063 569.03 428.945 555.111C434.073 544.743 440.955 524.005 439.74 522.727C439.47 522.443 435.962 523.011 431.914 524.147C405.465 531.391 377.533 528.977 356.213 517.756C348.521 513.637 341.504 506.535 341.504 502.842C341.504 494.178 378.882 497.587 439.335 511.506C458.767 516.052 462.41 516.478 476.444 516.052C494.661 515.341 500.328 512.927 508.02 503.126C516.521 492.19 527.181 464.351 529.745 446.17L530.689 439.921L519.489 443.898C502.217 450.147 488.318 452.704 467.538 453.414C444.463 454.408 436.771 453.414 432.453 448.869C428.135 444.324 428.135 437.648 432.453 434.666C442.169 427.848 464.704 422.451 496.685 419.042C523.538 416.201 536.492 413.36 547.017 407.821C558.487 401.856 561.456 395.748 561.456 378.562C561.456 371.744 560.781 362.512 560.106 357.825C557.812 344.19 552.955 323.168 552.145 323.168C551.74 323.168 544.048 329.56 535.142 337.372C518.005 352.428 512.338 355.41 503.971 353.848C498.574 352.712 491.287 346.178 491.287 342.343C491.287 334.247 504.241 323.168 520.029 317.629C531.634 313.51 540 308.113 548.367 299.307C559.297 288.086 562.13 281.126 561.995 266.355C561.86 256.128 560.916 251.441 556.058 236.101C552.954 226.159 549.986 218.063 549.446 218.063C549.041 218.063 546.342 222.75 543.644 228.431C537.032 241.641 529.205 251.157 519.085 258.117C508.694 265.218 503.027 265.36 496.954 258.827C494.391 255.986 492.636 252.719 492.636 250.447C492.636 244.055 503.162 235.675 517.6 230.846C525.697 228.147 528.26 225.875 532.309 218.063C540.135 203.007 538.381 193.065 524.077 170.197C519.489 162.953 514.767 154.147 513.417 150.596L511.123 144.063L508.424 148.75C486.159 187.383 470.911 203.717 456.743 203.859C452.29 203.859 448.106 200.166 448.106 196.331C448.106 191.928 458.092 182.27 473.07 171.759C498.304 154.289 514.227 136.677 514.227 126.308C514.227 119.775 509.639 108.27 502.622 97.1912C494.526 84.2661 493.041 83.1298 491.287 88.243C486.699 101.168 481.706 108.554 467.673 123.326C428.81 164.232 402.632 180.424 386.979 173.606C380.637 170.765 380.637 167.925 387.114 161.533C392.241 156.278 417.745 138.381 440.55 123.894C450.4 117.644 455.393 113.383 460.926 106.281C470.236 94.3506 477.793 78.4426 477.793 70.7728C477.793 62.6768 474.015 58.4158 459.576 49.8937C453.099 46.2008 445.408 40.8035 442.439 37.9628C437.041 32.8495 431.914 24.0434 431.914 19.9244C431.914 18.0779 431.239 17.9359 428.945 18.7881C423.547 20.7766 411.403 20.0664 397.234 16.6576C389.273 14.8111 378.882 13.5328 372.54 13.5328C362.555 13.5328 361.34 13.8169 358.506 17.0837C353.109 23.3333 351.625 31.9973 351.759 57.5636C351.894 70.4887 352.974 88.8112 354.188 98.3275C357.292 122.615 357.022 132.842 353.514 137.671C350.275 141.932 345.552 142.5 342.449 138.807C338.4 134.12 333.273 120.343 330.034 104.861C322.882 72.1932 326.661 38.5309 341.099 3.87445C342.044 1.74396 313.707 1.4599 306.15 3.59039C301.562 5.01074 300.887 5.86298 298.998 12.5386C297.784 16.6576 296.164 27.7363 295.355 37.3947C293.601 56.9955 294.95 76.3121 299.673 96.6231C303.181 111.253 303.046 117.36 299.538 122.047C291.576 132.7 282.94 118.496 275.519 81.7095C269.176 50.1777 268.502 30.577 273.36 9.41382C274.574 4.44263 275.249 0.18158 275.114 0.0395508C274.844 -0.244507 269.311 1.03375 262.564 2.88025ZM230.584 139.518C237.87 148.04 251.095 181.276 251.095 191.36C251.095 203.859 239.355 210.393 227.345 204.427C218.304 199.882 209.803 186.105 205.755 169.487C202.112 154.573 205.89 142.5 216.01 136.961C222.757 133.126 225.321 133.552 230.584 139.518ZM305.61 143.068C311.008 148.892 321.128 172.896 322.208 182.27C322.882 188.236 322.478 189.798 320.049 192.355C318.564 193.917 315.731 195.337 313.976 195.337C298.728 195.337 280.781 155.141 290.362 142.216C294.275 136.961 300.078 137.245 305.61 143.068ZM166.757 203.859C172.29 207.41 176.608 213.092 196.174 241.925C204.675 254.566 212.772 267.917 214.121 271.468C216.28 277.433 216.28 278.428 214.526 281.836C212.097 286.523 206.025 289.648 201.707 288.512C196.984 287.234 190.372 280.558 179.577 266.497C164.059 245.76 153.938 224.312 153.938 211.671C153.938 201.445 158.661 198.604 166.757 203.859ZM441.629 204.854C448.511 211.387 440.55 220.051 407.625 242.351C373.89 265.076 369.572 266.781 362.285 260.105C359.451 257.548 358.506 255.56 358.506 251.441C358.506 246.754 359.451 245.191 365.523 239.226C374.294 230.704 391.162 218.205 400.878 213.092C419.094 203.291 436.367 199.74 441.629 204.854ZM267.017 216.074C270.796 218.915 285.774 245.333 287.663 252.719C288.878 257.406 288.743 258.827 286.584 261.809C280.646 270.189 269.716 268.769 258.921 258.117C248.126 247.606 242.324 232.266 245.562 223.46C248.396 215.364 260.54 211.245 267.017 216.074ZM488.993 263.23C496.28 269.905 483.461 284.819 465.379 290.642C455.798 293.767 451.075 293.483 447.567 289.648C444.193 286.097 445.003 283.683 452.02 276.297C459.036 268.911 469.157 262.804 477.388 260.957C483.056 259.537 485.485 260.105 488.993 263.23ZM125.061 286.097C145.707 302.147 166.757 333.111 164.193 343.763C162.304 351.859 154.613 346.604 132.753 322.032C123.847 312.09 115.615 302.431 114.401 300.443C110.218 294.051 112.107 281.978 117.369 281.978C118.719 281.978 122.227 283.825 125.061 286.097ZM438.526 289.932C444.463 297.744 440.955 303 422.738 313.794C401.012 326.719 375.644 333.537 367.413 328.992C364.444 327.287 363.499 322.458 365.523 319.476C368.087 315.499 378.073 309.391 396.964 300.159C429.89 284.251 433.533 283.257 438.526 289.932ZM476.983 351.007C483.326 357.541 477.658 363.364 452.559 375.863C416.531 394.044 379.152 400.719 375.914 389.783C374.025 383.533 382.526 378.42 408.299 369.898C413.562 368.193 423.547 364.216 430.564 361.092C457.147 349.161 472.261 345.894 476.983 351.007ZM205.755 367.767C226.536 383.533 238.95 405.833 224.916 402.14C221.273 401.145 199.278 383.817 190.777 375.295C186.324 370.892 184.974 368.335 184.974 365.069C184.974 355.41 190.372 356.263 205.755 367.767ZM349.466 378.704C352.164 379.698 353.919 381.545 354.458 383.817C356.482 391.913 342.314 399.299 327.201 398.021C317.08 397.168 311.817 394.186 311.817 389.215C311.817 381.119 336.916 374.159 349.466 378.704ZM412.347 438.501C416.8 440.631 418.285 446.455 415.181 449.011C408.299 454.266 372.135 455.971 363.364 451.426C357.157 448.159 356.213 444.466 361.205 442.478C365.388 440.773 391.567 437.222 401.822 436.938C405.735 436.938 410.458 437.506 412.347 438.501ZM188.483 456.113C195.499 459.806 196.984 462.789 193.88 466.481C188.213 473.015 163.654 468.47 160.685 460.374C159.875 458.101 160.28 456.681 162.439 454.693C164.868 452.562 167.027 452.278 174.314 452.704C179.307 453.13 185.649 454.693 188.483 456.113ZM296.839 470.316C303.181 473.015 305.34 477.56 301.562 480.401C294.005 486.224 272.415 477.56 274.979 469.748C275.923 467.192 290.362 467.618 296.839 470.316Z" fill="white"/>
</svg>
