<?xml version="1.0" standalone="no"?>
<!DOCTYPE svg PUBLIC "-//W3C//DTD SVG 20010904//EN"
 "http://www.w3.org/TR/2001/REC-SVG-20010904/DTD/svg10.dtd">
<svg version="1.0" xmlns="http://www.w3.org/2000/svg"
 width="700.000000pt" height="700.000000pt" viewBox="0 0 700.000000 700.000000"
 preserveAspectRatio="xMidYMid meet">
<metadata>
Created by potrace 1.14, written by Peter Selinger 2001-2017
</metadata>
<g transform="translate(0.000000,700.000000) scale(0.100000,-0.100000)"
fill="#000000" stroke="none">
<path d="M4277 6924 c-1 -1 -31 -5 -66 -8 -141 -15 -181 -64 -236 -288 -20
-84 -38 -160 -40 -168 -19 -96 -73 -257 -111 -334 -103 -206 -224 -284 -351
-227 -45 21 -71 60 -93 141 -19 70 -22 254 -5 335 12 56 124 418 152 491 6 15
1 16 -38 10 -84 -13 -355 -78 -449 -108 -237 -76 -274 -119 -325 -387 -29
-154 -26 -605 5 -771 11 -57 25 -213 24 -264 -1 -47 -19 -63 -81 -72 -98 -14
-139 25 -151 143 -4 37 -7 169 -6 293 1 205 9 303 38 435 2 11 18 82 35 157
36 160 38 185 14 192 -28 9 -94 1 -153 -19 -129 -42 -366 -153 -454 -214 -163
-113 -228 -298 -221 -631 2 -85 6 -180 9 -210 3 -30 8 -89 11 -130 3 -41 7
-91 10 -110 2 -19 7 -60 10 -90 13 -115 26 -209 40 -282 8 -40 13 -83 21 -164
7 -82 -10 -130 -51 -140 -96 -24 -183 91 -277 366 -28 80 -74 245 -84 300 -3
14 -9 41 -14 60 -5 19 -11 51 -14 70 -3 19 -12 78 -20 130 -8 52 -18 127 -22
165 -4 39 -8 79 -10 90 -1 11 -3 26 -3 33 -1 16 -95 -36 -176 -97 -81 -62
-229 -211 -292 -296 -137 -182 -154 -313 -68 -520 60 -145 294 -615 384 -769
28 -49 51 -90 51 -92 0 -2 24 -43 54 -92 49 -81 113 -173 328 -472 42 -58 92
-135 112 -172 l37 -67 -28 -14 c-78 -40 -160 17 -368 257 -33 38 -65 74 -71
80 -25 26 -273 327 -315 381 -109 143 -229 395 -319 670 -23 72 -46 133 -49
138 -11 12 -156 -213 -254 -394 -85 -158 -119 -254 -123 -349 -3 -79 -1 -91
27 -150 33 -70 59 -98 453 -475 323 -309 605 -596 632 -642 25 -42 25 -80 1
-111 -21 -26 -88 -54 -116 -47 -90 22 -326 177 -530 348 -101 84 -164 149
-280 282 -47 55 -90 105 -96 111 -5 6 -28 32 -50 58 -83 100 -73 92 -86 60
-31 -80 -85 -290 -114 -439 -25 -132 -25 -322 0 -420 24 -96 75 -190 140 -258
77 -80 145 -110 275 -123 196 -18 303 -31 340 -40 14 -3 36 -8 50 -10 108 -19
279 -73 360 -115 65 -33 105 -127 86 -206 -11 -50 -32 -69 -86 -78 -19 -3 -47
-8 -61 -11 -75 -15 -265 -6 -369 18 -25 5 -53 11 -63 13 -51 11 -156 54 -270
111 -70 35 -130 64 -133 64 -22 0 155 -345 225 -440 69 -92 128 -133 229 -162
94 -26 286 -19 477 18 333 64 693 199 1033 388 45 26 82 44 82 41 0 -3 -9 -16
-21 -28 -33 -35 -222 -268 -249 -307 -13 -19 -27 -37 -31 -40 -3 -3 -8 -9 -10
-15 -2 -5 -29 -48 -60 -95 -105 -159 -223 -410 -263 -561 -8 -30 -24 -89 -36
-131 -25 -91 -24 -86 -49 -213 -29 -148 -31 -165 -18 -166 64 -7 167 8 168 24
0 7 2 52 4 102 5 115 9 141 30 245 73 362 284 719 655 1110 27 29 41 38 37 25
-3 -11 -9 -47 -12 -80 -4 -33 -8 -71 -10 -85 -4 -37 -15 -156 -21 -230 -3 -36
-7 -159 -9 -275 -7 -416 50 -604 223 -734 110 -83 260 -112 462 -88 30 3 59 6
63 7 5 0 -31 31 -80 69 -153 118 -226 219 -262 363 -31 121 -17 163 71 223 77
51 111 46 180 -29 28 -32 137 -241 139 -267 0 -8 21 -54 47 -104 44 -83 52
-93 117 -136 118 -77 334 -158 440 -164 138 -8 293 70 445 224 88 90 166 187
218 273 l23 36 -28 6 c-15 3 -64 8 -108 11 -356 27 -724 224 -853 456 -47 85
-33 134 37 125 143 -16 443 -157 861 -404 331 -195 387 -222 560 -268 164 -43
241 -34 351 39 101 67 280 268 382 429 36 57 87 152 87 163 0 3 -71 5 -157 5
-238 0 -444 37 -714 127 -184 62 -249 111 -249 190 0 52 19 81 65 99 71 27
302 22 475 -11 14 -3 43 -7 65 -11 36 -5 133 -24 351 -69 214 -45 405 -54 524
-24 78 19 144 88 184 190 35 91 82 273 91 354 4 33 8 74 10 90 4 32 15 158 19
213 1 20 -2 32 -10 32 -7 0 -97 -33 -201 -74 -215 -85 -279 -103 -345 -101
-57 2 -103 29 -145 83 -40 52 -51 103 -30 135 23 36 89 76 164 102 65 22 93
26 268 40 159 14 230 34 365 106 152 81 220 176 266 374 18 78 30 449 15 474
-7 10 -27 -4 -86 -60 -134 -129 -233 -193 -365 -239 -83 -29 -184 -32 -222 -6
-59 39 -92 163 -54 205 43 47 173 86 304 90 40 1 84 5 100 7 74 14 185 115
229 210 38 83 34 218 -11 399 -26 103 -47 216 -50 267 -3 35 -5 67 -5 71 -1 7
-112 -81 -131 -104 -16 -18 -224 -177 -280 -213 -208 -136 -372 -167 -449 -85
-33 36 -28 83 12 113 49 37 148 80 294 127 223 71 275 90 380 139 154 73 240
139 269 207 8 18 14 65 15 105 2 139 -62 418 -95 418 -7 0 -41 -32 -76 -70
-79 -89 -205 -174 -413 -279 -420 -212 -716 -300 -892 -266 -75 15 -153 83
-141 123 8 25 98 72 201 105 115 37 346 103 461 131 270 66 353 98 473 184 91
64 224 201 251 257 50 103 32 162 -96 311 -159 185 -205 271 -210 394 l-3 65
-46 7 c-75 11 -141 38 -295 122 -207 113 -336 166 -402 166 -70 0 -144 -82
-198 -220 -28 -68 -81 -220 -85 -240 -2 -8 -10 -37 -18 -65 -41 -132 -80 -285
-92 -355 -38 -227 -98 -390 -155 -423 -76 -45 -130 5 -140 133 -36 440 113
895 418 1274 39 49 69 92 67 96 -17 28 -313 120 -385 120 -44 0 -52 -4 -83
-40 -41 -49 -140 -247 -191 -383 -39 -105 -91 -296 -102 -374 -3 -26 -7 -50
-9 -53 -2 -3 -6 -41 -10 -85 -4 -44 -8 -91 -10 -105 -3 -14 -7 -43 -10 -65
-19 -125 -124 -212 -175 -145 -47 63 -55 274 -19 535 5 39 11 88 14 110 29
241 103 469 210 650 48 81 59 104 53 110 -9 9 -381 28 -391 19z m-635 -1300
c62 -56 93 -227 93 -514 0 -152 -2 -169 -23 -212 -68 -137 -250 -122 -339 29
-39 68 -63 165 -70 283 -12 242 67 394 224 428 54 12 91 7 115 -14z m804 -312
c63 -51 91 -161 100 -392 5 -143 -8 -212 -48 -246 -31 -26 -84 -32 -118 -14
-45 24 -110 156 -126 255 -18 114 -4 267 30 333 37 72 115 103 162 64z m-1713
-201 c58 -65 73 -99 157 -376 92 -304 140 -502 140 -580 0 -43 -26 -77 -77
-104 -49 -25 -119 -10 -154 33 -47 56 -153 323 -185 461 -1 6 -9 39 -18 75
-34 143 -42 347 -17 432 30 103 92 127 154 59z m1076 -516 c16 -27 43 -111 55
-175 3 -14 9 -50 15 -80 6 -30 13 -68 16 -85 14 -73 13 -159 -1 -187 -31 -61
-121 -81 -193 -43 -60 30 -144 152 -173 249 -20 70 -28 184 -15 241 23 109
126 164 235 125 28 -9 50 -26 61 -45z m-1850 -191 c127 -146 267 -502 275
-698 3 -75 -2 -100 -25 -125 -52 -56 -123 51 -293 441 -94 215 -105 256 -86
314 31 92 84 120 129 68z m3728 -268 c58 -19 90 -46 99 -82 22 -85 -151 -162
-650 -289 -238 -60 -321 -72 -370 -51 -34 14 -63 51 -76 98 -10 34 11 103 38
125 77 63 445 188 612 208 30 4 56 8 58 10 11 10 246 -5 289 -19z m-3165 -868
c128 -151 226 -350 233 -470 6 -88 -37 -103 -99 -35 -72 80 -278 415 -287 467
-6 32 13 90 33 104 29 21 63 2 120 -66z m3519 57 c35 -19 49 -38 55 -77 16
-93 -160 -180 -362 -181 -110 0 -174 24 -194 74 -18 43 -1 72 62 109 146 84
353 119 439 75z m-654 -94 c24 -10 37 -25 49 -57 37 -97 -20 -151 -200 -190
-156 -34 -262 -48 -381 -48 -217 0 -355 44 -355 114 0 15 3 36 6 45 11 28 105
66 199 80 11 2 34 6 50 9 17 3 48 8 70 11 22 3 87 12 145 20 58 8 139 17 180
21 41 3 76 7 78 9 9 8 133 -3 159 -14z m-1377 -636 c154 -46 209 -133 121
-192 -69 -46 -208 -40 -326 15 -78 37 -112 69 -120 114 -6 30 -3 37 18 51 13
9 40 20 58 25 48 14 184 6 249 -13z m1528 -166 c84 -17 132 -71 111 -126 -14
-37 -114 -73 -274 -99 -20 -3 -47 -7 -58 -10 -124 -24 -442 -35 -581 -21 -89
10 -206 34 -249 52 -110 46 -128 122 -39 158 57 23 105 28 311 33 102 2 215 6
251 9 36 2 117 7 180 11 63 4 116 8 118 9 7 6 183 -6 230 -16z m-3598 -55
c115 -52 181 -108 195 -167 15 -57 -86 -77 -181 -37 -103 44 -176 109 -188
167 -7 29 -4 34 26 53 38 24 65 21 148 -16z m1190 -580 c70 -32 116 -68 135
-104 19 -36 19 -45 -1 -64 -68 -68 -304 85 -279 181 6 24 9 25 48 19 23 -4 67
-18 97 -32z m975 2 c64 -8 94 -13 180 -31 39 -8 83 -17 98 -19 49 -8 140 -36
185 -57 71 -32 100 -110 54 -146 -72 -56 -553 86 -611 181 -28 45 -26 62 7 74
15 5 29 8 32 7 3 -2 28 -5 55 -9z"/>
</g>
</svg>
